<svg width="140" height="50" viewBox="0 0 140 50" fill="none" xmlns="http://www.w3.org/2000/svg">
<path d="M29.7046 23.7632C29.6766 20.7311 32.2474 19.256 32.365 19.1874C30.909 17.1149 28.6524 16.8317 27.8593 16.8092C25.964 16.6144 24.1255 17.9164 23.16 17.9164C22.1752 17.9164 20.6884 16.828 19.086 16.86C17.024 16.891 15.0949 18.0566 14.0369 19.8666C11.8534 23.5571 13.4819 28.9806 15.5738 31.9637C16.6202 33.4247 17.843 35.0559 19.4435 34.9985C21.0093 34.9355 21.5942 34.0239 23.4838 34.0239C25.356 34.0239 25.9052 34.9985 27.5375 34.9618C29.218 34.9355 30.276 33.4943 31.2858 32.0201C32.4951 30.3456 32.9807 28.6965 33 28.6118C32.9605 28.5986 29.7364 27.3973 29.7046 23.7632Z" fill="white"/>
<path d="M26.6209 14.8467C27.463 13.8185 28.0392 12.4196 27.8793 11C26.6604 11.0527 25.136 11.8232 24.2582 12.8288C23.4815 13.715 22.7878 15.1675 22.967 16.5335C24.3362 16.6332 25.7421 15.859 26.6209 14.8467Z" fill="white"/>
<path d="M55.4366 34.8197H53.3269L52.1714 31.2442H48.1547L47.0539 34.8197H45L48.9795 22.647H51.4375L55.4366 34.8197ZM51.823 29.7441L50.778 26.5655C50.6674 26.2408 50.4603 25.4761 50.1546 24.2724H50.1175C49.9958 24.7901 49.7998 25.5548 49.5304 26.5655L48.5039 29.7441H51.823V29.7441Z" fill="white"/>
<path d="M65.6702 30.323C65.6702 31.8158 65.2605 32.9958 64.4412 33.862C63.7074 34.6331 62.7961 35.0181 61.7083 35.0181C60.5341 35.0181 59.6907 34.6029 59.177 33.7723H59.1398V38.3961H57.1593V28.9318C57.1593 27.9933 57.1342 27.0301 57.0859 26.0423H58.8277L58.9382 27.4335H58.9754C59.6359 26.3853 60.6382 25.8621 61.9833 25.8621C63.0348 25.8621 63.9127 26.2709 64.6149 27.0896C65.3191 27.9091 65.6702 28.9867 65.6702 30.323ZM63.6526 30.3944C63.6526 29.54 63.4575 28.8357 63.0655 28.2814C62.6372 27.7033 62.0622 27.4143 61.3414 27.4143C60.8528 27.4143 60.4087 27.5753 60.0121 27.8927C59.6145 28.2128 59.3544 28.6308 59.2327 29.1486C59.1714 29.39 59.1407 29.5876 59.1407 29.7431V31.2066C59.1407 31.8451 59.3395 32.3838 59.7371 32.8238C60.1347 33.2638 60.6512 33.4833 61.2866 33.4833C62.0325 33.4833 62.6131 33.1997 63.0283 32.6345C63.4445 32.0683 63.6526 31.3219 63.6526 30.3944Z" fill="white"/>
<path d="M75.9232 30.323C75.9232 31.8158 75.5135 32.9958 74.6933 33.862C73.9603 34.6331 73.0491 35.0181 71.9613 35.0181C70.7871 35.0181 69.9436 34.6029 69.4309 33.7723H69.3937V38.3961H67.4132V28.9318C67.4132 27.9933 67.3881 27.0301 67.3398 26.0423H69.0816L69.1921 27.4335H69.2293C69.8888 26.3853 70.8912 25.8621 72.2372 25.8621C73.2878 25.8621 74.1656 26.2709 74.8698 27.0896C75.5711 27.9091 75.9232 28.9867 75.9232 30.323ZM73.9055 30.3944C73.9055 29.54 73.7095 28.8357 73.3175 28.2814C72.8893 27.7033 72.3161 27.4143 71.5944 27.4143C71.1048 27.4143 70.6617 27.5753 70.2641 27.8927C69.8665 28.2128 69.6074 28.6308 69.4857 29.1486C69.4253 29.39 69.3937 29.5876 69.3937 29.7431V31.2066C69.3937 31.8451 69.5925 32.3838 69.9882 32.8238C70.3858 33.2628 70.9023 33.4833 71.5396 33.4833C72.2855 33.4833 72.8661 33.1997 73.2813 32.6345C73.6975 32.0683 73.9055 31.3219 73.9055 30.3944Z" fill="white"/>
<path d="M87.3861 31.4061C87.3861 32.4415 87.021 33.284 86.2881 33.9343C85.4827 34.645 84.3615 34.9999 82.9207 34.9999C81.5905 34.9999 80.524 34.7475 79.7168 34.2417L80.1757 32.6162C81.0452 33.134 81.9992 33.3937 83.0387 33.3937C83.7846 33.3937 84.3652 33.2273 84.7823 32.8961C85.1975 32.565 85.4047 32.1205 85.4047 31.5662C85.4047 31.0722 85.2337 30.6561 84.891 30.3185C84.55 29.981 83.9806 29.6673 83.1854 29.3773C81.021 28.5824 79.9397 27.418 79.9397 25.8868C79.9397 24.8862 80.3187 24.0657 81.0777 23.4272C81.8338 22.7879 82.8427 22.4686 84.1041 22.4686C85.2291 22.4686 86.1636 22.6616 86.9095 23.0467L86.4144 24.6365C85.7177 24.2633 84.93 24.0767 84.0484 24.0767C83.3517 24.0767 82.8074 24.2459 82.4172 24.5825C82.0874 24.8834 81.9221 25.2502 81.9221 25.6847C81.9221 26.1658 82.1107 26.5637 82.4897 26.8765C82.8194 27.1656 83.4186 27.4784 84.2881 27.8159C85.3517 28.2376 86.1329 28.7306 86.6355 29.2959C87.1362 29.8594 87.3861 30.5646 87.3861 31.4061Z" fill="white"/>
<path d="M93.9341 27.5059H91.7511V31.7674C91.7511 32.8514 92.1356 33.3929 92.9067 33.3929C93.2606 33.3929 93.5541 33.3627 93.7864 33.3023L93.8412 34.7832C93.451 34.9268 92.9373 34.9991 92.301 34.9991C91.5188 34.9991 90.9076 34.764 90.4664 34.2947C90.027 33.8246 89.8059 33.0361 89.8059 31.9284V27.5041H88.5054V26.0406H89.8059V24.4334L91.7511 23.8553V26.0406H93.9341V27.5059Z" fill="white"/>
<path d="M103.784 30.3589C103.784 31.7081 103.392 32.8157 102.61 33.682C101.789 34.5738 100.701 35.0183 99.3435 35.0183C98.0355 35.0183 96.9942 34.5912 96.2176 33.7368C95.441 32.8825 95.0527 31.8041 95.0527 30.5043C95.0527 29.1442 95.4522 28.0301 96.2538 27.1639C97.0536 26.2967 98.1331 25.8632 99.4902 25.8632C100.798 25.8632 101.851 26.2903 102.645 27.1456C103.405 27.9752 103.784 29.0463 103.784 30.3589ZM101.729 30.422C101.729 29.6125 101.553 28.9182 101.198 28.3392C100.782 27.6386 100.189 27.2892 99.4196 27.2892C98.6235 27.2892 98.0188 27.6395 97.6036 28.3392C97.2478 28.9192 97.0722 29.6244 97.0722 30.4586C97.0722 31.2681 97.2478 31.9623 97.6036 32.5404C98.0318 33.2411 98.63 33.5905 99.402 33.5905C100.158 33.5905 100.752 33.2338 101.18 32.5221C101.545 31.9322 101.729 31.2306 101.729 30.422Z" fill="white"/>
<path d="M110.221 27.7573C110.025 27.7216 109.816 27.7033 109.597 27.7033C108.9 27.7033 108.362 27.9622 107.983 28.4808C107.653 28.9382 107.487 29.5163 107.487 30.2142V34.8197H105.508L105.526 28.8065C105.526 27.7948 105.501 26.8737 105.452 26.0432H107.177L107.25 27.7225H107.304C107.513 27.1454 107.843 26.6807 108.295 26.3322C108.736 26.0185 109.212 25.8621 109.726 25.8621C109.909 25.8621 110.075 25.8749 110.221 25.8977V27.7573Z" fill="white"/>
<path d="M119.079 30.0158C119.079 30.3652 119.055 30.6597 119.006 30.9003H113.065C113.088 31.7674 113.375 32.4306 113.927 32.8879C114.428 33.2968 115.075 33.5017 115.87 33.5017C116.75 33.5017 117.552 33.3636 118.274 33.0864L118.584 34.4402C117.741 34.8024 116.745 34.9826 115.596 34.9826C114.214 34.9826 113.129 34.5819 112.339 33.7816C111.552 32.9812 111.157 31.9065 111.157 30.5582C111.157 29.2346 111.524 28.1324 112.258 27.2534C113.028 26.3149 114.067 25.8457 115.375 25.8457C116.66 25.8457 117.632 26.3149 118.293 27.2534C118.816 27.9989 119.079 28.9209 119.079 30.0158ZM117.19 29.51C117.203 28.9319 117.074 28.4325 116.806 28.0108C116.463 27.4684 115.936 27.1976 115.227 27.1976C114.58 27.1976 114.053 27.462 113.651 27.9925C113.321 28.4142 113.125 28.92 113.065 29.5091H117.19V29.51Z" fill="white"/>
<path d="M51.1684 15.1584C51.1684 16.235 50.8404 17.0454 50.1855 17.5897C49.579 18.0919 48.7169 18.3434 47.6003 18.3434C47.0467 18.3434 46.5729 18.3196 46.1763 18.2721V12.3897C46.6937 12.3073 47.251 12.2653 47.853 12.2653C48.9166 12.2653 49.7183 12.493 50.2589 12.9485C50.8646 13.4635 51.1684 14.1998 51.1684 15.1584ZM50.1419 15.185C50.1419 14.487 49.9542 13.952 49.579 13.5788C49.2037 13.2065 48.6556 13.0199 47.9338 13.0199C47.6273 13.0199 47.3662 13.04 47.1498 13.0821V17.554C47.2696 17.5723 47.4889 17.5805 47.8075 17.5805C48.5525 17.5805 49.1275 17.3766 49.5325 16.9686C49.9375 16.5607 50.1419 15.9661 50.1419 15.185Z" fill="white"/>
<path d="M56.6111 16.0987C56.6111 16.7618 56.4188 17.3052 56.0343 17.7314C55.6311 18.1696 55.097 18.3882 54.43 18.3882C53.7872 18.3882 53.2753 18.1787 52.8936 17.758C52.5127 17.3381 52.3223 16.8085 52.3223 16.17C52.3223 15.5023 52.5183 14.9544 52.9121 14.5291C53.306 14.1037 53.8355 13.8906 54.5025 13.8906C55.1453 13.8906 55.6618 14.1001 56.0528 14.5199C56.4244 14.9279 56.6111 15.4548 56.6111 16.0987ZM55.6014 16.1298C55.6014 15.7319 55.5141 15.3907 55.3404 15.1063C55.136 14.7623 54.8452 14.5904 54.4672 14.5904C54.0761 14.5904 53.7788 14.7623 53.5745 15.1063C53.3998 15.3907 53.3134 15.7374 53.3134 16.1472C53.3134 16.5451 53.4008 16.8862 53.5745 17.1707C53.7853 17.5146 54.0789 17.6866 54.4579 17.6866C54.8294 17.6866 55.1211 17.5119 55.3311 17.1616C55.5113 16.8716 55.6014 16.5277 55.6014 16.1298Z" fill="white"/>
<path d="M63.9086 13.9784L62.5384 18.2903H61.6466L61.0791 16.4179C60.9351 15.9505 60.818 15.4858 60.727 15.0248H60.7093C60.6248 15.4986 60.5078 15.9624 60.3573 16.4179L59.7544 18.2903H58.8524L57.564 13.9784H58.5644L59.0595 16.0282C59.1794 16.513 59.2778 16.9749 59.3568 17.4122H59.3745C59.4469 17.0518 59.5667 16.5926 59.7358 16.0374L60.3573 13.9793H61.1506L61.746 15.9935C61.89 16.4847 62.0071 16.9576 62.0972 17.4131H62.1241C62.1901 16.9694 62.2895 16.4965 62.4214 15.9935L62.9527 13.9793H63.9086V13.9784Z" fill="white"/>
<path d="M68.9555 18.2904H67.982V15.8207C67.982 15.0597 67.6885 14.6792 67.0995 14.6792C66.8106 14.6792 66.5775 14.7834 66.3963 14.9929C66.217 15.2024 66.126 15.4493 66.126 15.732V18.2895H65.1525V15.2106C65.1525 14.8319 65.1404 14.4212 65.1172 13.9767H65.9727L66.0183 14.6508H66.0452C66.1585 14.4413 66.3276 14.2685 66.5496 14.1303C66.8134 13.9693 67.1088 13.8879 67.4321 13.8879C67.8408 13.8879 68.1808 14.0178 68.4511 14.2785C68.7874 14.5977 68.9555 15.0743 68.9555 15.7073V18.2904V18.2904Z" fill="white"/>
<path d="M71.6401 18.2903H70.6675V12H71.6401V18.2903Z" fill="white"/>
<path d="M77.3719 16.0987C77.3719 16.7618 77.1796 17.3052 76.795 17.7314C76.3919 18.1696 75.8568 18.3882 75.1908 18.3882C74.547 18.3882 74.0352 18.1787 73.6543 17.758C73.2734 17.3381 73.083 16.8085 73.083 16.17C73.083 15.5023 73.279 14.9544 73.6729 14.5291C74.0667 14.1037 74.5962 13.8906 75.2623 13.8906C75.906 13.8906 76.4216 14.1001 76.8136 14.5199C77.1852 14.9279 77.3719 15.4548 77.3719 16.0987ZM76.3612 16.1298C76.3612 15.7319 76.2739 15.3907 76.1002 15.1063C75.8967 14.7623 75.6051 14.5904 75.2279 14.5904C74.8359 14.5904 74.5386 14.7623 74.3352 15.1063C74.1606 15.3907 74.0742 15.7374 74.0742 16.1472C74.0742 16.5451 74.1615 16.8862 74.3352 17.1707C74.5461 17.5146 74.8396 17.6866 75.2186 17.6866C75.5902 17.6866 75.881 17.5119 76.0909 17.1616C76.272 16.8716 76.3612 16.5277 76.3612 16.1298Z" fill="white"/>
<path d="M82.0833 18.2903H81.2091L81.1367 17.7936H81.1097C80.8106 18.1897 80.3842 18.3882 79.8306 18.3882C79.4172 18.3882 79.0828 18.2574 78.8311 17.9976C78.6025 17.7616 78.4883 17.468 78.4883 17.1195C78.4883 16.5926 78.7112 16.1911 79.1599 15.913C79.6076 15.6349 80.2375 15.4987 81.0484 15.5051V15.4246C81.0484 14.8565 80.7456 14.573 80.139 14.573C79.707 14.573 79.3262 14.68 78.9973 14.8922L78.7995 14.2629C79.2063 14.015 79.7089 13.8906 80.3016 13.8906C81.446 13.8906 82.0201 14.4852 82.0201 15.6743V17.2622C82.0201 17.693 82.0414 18.036 82.0833 18.2903ZM81.0726 16.8085V16.1435C79.9987 16.1252 79.4618 16.4152 79.4618 17.0125C79.4618 17.2375 79.5231 17.4058 79.6485 17.5183C79.7739 17.6308 79.9337 17.6866 80.1241 17.6866C80.3378 17.6866 80.5375 17.6198 80.7196 17.4872C80.9026 17.3537 81.015 17.1844 81.0568 16.9768C81.067 16.9302 81.0726 16.8734 81.0726 16.8085Z" fill="white"/>
<path d="M87.6148 18.2903H86.7509L86.7053 17.5979H86.6784C86.4025 18.1248 85.9325 18.3882 85.272 18.3882C84.7444 18.3882 84.305 18.1842 83.9566 17.7763C83.6083 17.3683 83.4346 16.8387 83.4346 16.1884C83.4346 15.4905 83.6231 14.9252 84.0021 14.4935C84.3691 14.091 84.8187 13.8898 85.3537 13.8898C85.9418 13.8898 86.3533 14.0846 86.5874 14.4752H86.6059V12H87.5804V17.1287C87.5804 17.5485 87.5915 17.9354 87.6148 18.2903ZM86.6059 16.4719V15.753C86.6059 15.6286 86.5967 15.528 86.579 15.4511C86.5242 15.2206 86.4062 15.0267 86.2269 14.8703C86.0458 14.7139 85.8275 14.6352 85.5758 14.6352C85.2125 14.6352 84.9283 14.777 84.7193 15.0615C84.5121 15.3459 84.4072 15.7091 84.4072 16.1527C84.4072 16.579 84.5066 16.9247 84.7063 17.1909C84.9171 17.4744 85.2014 17.6162 85.5572 17.6162C85.8767 17.6162 86.1322 17.4982 86.3263 17.2613C86.514 17.0427 86.6059 16.7793 86.6059 16.4719Z" fill="white"/>
<path d="M95.9412 16.0987C95.9412 16.7618 95.7489 17.3052 95.3644 17.7314C94.9612 18.1696 94.428 18.3882 93.7601 18.3882C93.1182 18.3882 92.6064 18.1787 92.2236 17.758C91.8428 17.3381 91.6523 16.8085 91.6523 16.17C91.6523 15.5023 91.8484 14.9544 92.2422 14.5291C92.6361 14.1037 93.1656 13.8906 93.8335 13.8906C94.4754 13.8906 94.9928 14.1001 95.3829 14.5199C95.7545 14.9279 95.9412 15.4548 95.9412 16.0987ZM94.9324 16.1298C94.9324 15.7319 94.8451 15.3907 94.6714 15.1063C94.4661 14.7623 94.1763 14.5904 93.7973 14.5904C93.4071 14.5904 93.1098 14.7623 92.9045 15.1063C92.7299 15.3907 92.6435 15.7374 92.6435 16.1472C92.6435 16.5451 92.7308 16.8862 92.9045 17.1707C93.1154 17.5146 93.409 17.6866 93.788 17.6866C94.1595 17.6866 94.4522 17.5119 94.6621 17.1616C94.8414 16.8716 94.9324 16.5277 94.9324 16.1298Z" fill="white"/>
<path d="M101.175 18.2904H100.203V15.8207C100.203 15.0597 99.9092 14.6792 99.3193 14.6792C99.0304 14.6792 98.7972 14.7834 98.617 14.9929C98.4368 15.2024 98.3467 15.4493 98.3467 15.732V18.2895H97.3723V15.2106C97.3723 14.8319 97.3611 14.4212 97.3379 13.9767H98.1925L98.238 14.6508H98.265C98.3792 14.4413 98.5483 14.2685 98.7694 14.1303C99.0341 13.9693 99.3286 13.8879 99.6528 13.8879C100.061 13.8879 100.401 14.0178 100.671 14.2785C101.008 14.5977 101.175 15.0743 101.175 15.7073V18.2904V18.2904Z" fill="white"/>
<path d="M107.727 14.6965H106.655V16.7912C106.655 17.3235 106.845 17.5897 107.223 17.5897C107.397 17.5897 107.542 17.5751 107.656 17.5449L107.682 18.2721C107.489 18.3434 107.237 18.3791 106.925 18.3791C106.541 18.3791 106.242 18.2639 106.025 18.0334C105.808 17.8028 105.7 17.415 105.7 16.8708V14.6965H105.06V13.9785H105.7V13.1882L106.654 12.9047V13.9776H107.726V14.6965H107.727Z" fill="white"/>
<path d="M112.881 18.2903H111.907V15.839C111.907 15.0661 111.613 14.6791 111.025 14.6791C110.574 14.6791 110.265 14.9032 110.096 15.3514C110.067 15.4457 110.051 15.5609 110.051 15.6963V18.2894H109.078V12H110.051V14.5986H110.069C110.376 14.1257 110.815 13.8898 111.385 13.8898C111.788 13.8898 112.121 14.0196 112.386 14.2803C112.716 14.605 112.881 15.088 112.881 15.7265V18.2903V18.2903Z" fill="white"/>
<path d="M118.197 15.9304C118.197 16.1024 118.184 16.2469 118.161 16.3649H115.241C115.255 16.7912 115.394 17.1159 115.664 17.3409C115.911 17.5421 116.23 17.6428 116.62 17.6428C117.052 17.6428 117.446 17.5751 117.801 17.4388L117.953 18.1047C117.538 18.2821 117.049 18.3709 116.483 18.3709C115.805 18.3709 115.271 18.1742 114.885 17.7809C114.496 17.3876 114.304 16.8598 114.304 16.1975C114.304 15.5472 114.483 15.0057 114.845 14.574C115.222 14.1129 115.732 13.8824 116.376 13.8824C117.006 13.8824 117.484 14.1129 117.807 14.574C118.068 14.9398 118.197 15.3926 118.197 15.9304ZM117.268 15.6826C117.276 15.3981 117.212 15.153 117.08 14.9462C116.911 14.6801 116.653 14.5465 116.305 14.5465C115.987 14.5465 115.728 14.6764 115.53 14.9371C115.369 15.1447 115.273 15.3926 115.241 15.6826H117.268Z" fill="white"/>
</svg>
