<svg width="140" height="50" viewBox="0 0 140 50" fill="none" xmlns="http://www.w3.org/2000/svg">
<path d="M12.1196 13.3785C11.8089 13.7433 11.6521 14.2103 11.6811 14.6843V35.3158C11.6521 35.7898 11.8089 36.2568 12.1196 36.6216L12.1864 36.6869L23.9967 25.14V24.8695L12.1864 13.3132L12.1196 13.3785Z" fill="url(#paint0_linear)"/>
<path d="M27.9052 28.992L23.9971 25.14V24.8695L27.9052 21.0081L27.991 21.0547L32.6713 23.6569C34.0058 24.3938 34.0058 25.6063 32.6713 26.3525L28.0101 28.9454L27.9052 28.992Z" fill="url(#paint1_linear)"/>
<path d="M28.0197 28.936L23.9971 25L12.1201 36.6215C12.3921 36.8555 12.7391 36.9892 13.1011 36.9994C13.4632 37.0096 13.8175 36.8957 14.1028 36.6775L28.0292 28.936" fill="url(#paint2_linear)"/>
<path d="M28.0195 21.064L14.093 13.3225C13.8077 13.1043 13.4534 12.9904 13.0914 13.0006C12.7294 13.0109 12.3824 13.1445 12.1104 13.3785L23.9969 25L28.0195 21.064Z" fill="url(#paint3_linear)"/>
<path opacity="0.2" d="M27.9053 28.8521L14.0933 36.5469C13.8181 36.7482 13.4837 36.857 13.1401 36.857C12.7964 36.857 12.462 36.7482 12.1868 36.5469L12.1201 36.6122L12.1868 36.6775C12.4614 36.8802 12.7961 36.9899 13.1401 36.9899C13.4841 36.9899 13.8187 36.8802 14.0933 36.6775L28.0197 28.936L27.9053 28.8521Z" fill="black"/>
<path opacity="0.12" d="M12.1196 36.4909C11.8089 36.1262 11.6521 35.6592 11.6811 35.1852V35.3251C11.6521 35.7991 11.8089 36.2661 12.1196 36.6309L12.1864 36.5656L12.1196 36.4909ZM32.6709 26.2125L27.9048 28.8521L27.9906 28.936L32.6709 26.3431C32.9365 26.221 33.1644 26.0326 33.3318 25.7968C33.4991 25.561 33.6 25.2861 33.6241 25C33.5705 25.26 33.4567 25.5044 33.2915 25.7146C33.1262 25.9248 32.9139 26.0951 32.6709 26.2125Z" fill="black"/>
<path opacity="0.25" d="M14.093 13.4527L32.6712 23.7871C32.9142 23.9044 33.1265 24.0748 33.2917 24.285C33.457 24.4952 33.5708 24.7396 33.6244 24.9996C33.6002 24.7135 33.4994 24.4386 33.332 24.2028C33.1647 23.967 32.9367 23.7786 32.6712 23.6565L14.093 13.3221C12.7585 12.5853 11.6719 13.2008 11.6719 14.6932V14.8331C11.7005 13.3314 12.7681 12.7158 14.093 13.4527V13.4527Z" fill="white"/>
<path d="M71.1058 26.3362C70.2871 26.34 69.488 26.5825 68.8091 27.0331C68.1303 27.4837 67.6023 28.1222 67.2916 28.8681C66.981 29.6139 66.9017 30.4337 67.0638 31.2238C67.2259 32.014 67.622 32.7392 68.2023 33.3079C68.7825 33.8766 69.5209 34.2632 70.3241 34.4191C71.1273 34.575 71.9594 34.4931 72.7154 34.1837C73.4714 33.8744 74.1174 33.3514 74.5718 32.6809C75.0263 32.0104 75.2688 31.2223 75.2688 30.4162C75.2768 29.8766 75.1744 29.3409 74.9677 28.8411C74.7611 28.3413 74.4544 27.8876 74.066 27.5069C73.6775 27.1262 73.2153 26.8264 72.7067 26.6252C72.1982 26.4241 71.6537 26.3258 71.1058 26.3362V26.3362ZM71.1058 32.893C70.6023 32.9276 70.0999 32.8124 69.6638 32.5621C69.2278 32.3119 68.8782 31.9383 68.6607 31.4899C68.4431 31.0414 68.3676 30.5389 68.4439 30.0477C68.5202 29.5564 68.7449 29.0991 69.0886 28.7352C69.4324 28.3714 69.8794 28.1177 70.3714 28.0073C70.8635 27.8969 71.378 27.9348 71.8479 28.1161C72.3178 28.2974 72.7215 28.6137 73.0065 29.0239C73.2914 29.4341 73.4444 29.9192 73.4457 30.4162C73.4614 30.7311 73.4129 31.0459 73.3031 31.342C73.1932 31.6382 73.0243 31.9097 72.8062 32.1405C72.5882 32.3713 72.3254 32.5568 72.0333 32.6861C71.7413 32.8153 71.4259 32.8857 71.1058 32.893ZM62.0291 26.3362C61.21 26.3381 60.4098 26.579 59.7297 27.0284C59.0496 27.4779 58.5201 28.1158 58.2079 28.8615C57.8958 29.6071 57.8151 30.4272 57.9761 31.218C58.1371 32.0088 58.5325 32.7349 59.1124 33.3045C59.6922 33.8742 60.4306 34.2618 61.234 34.4185C62.0375 34.5751 62.8702 34.4938 63.6267 34.1847C64.3833 33.8756 65.0298 33.3526 65.4847 32.6819C65.9396 32.0111 66.1823 31.2227 66.1823 30.4162C66.1903 29.8766 66.0879 29.3409 65.8813 28.8411C65.6746 28.3413 65.3679 27.8876 64.9795 27.5069C64.5911 27.1262 64.1288 26.8264 63.6203 26.6252C63.1117 26.4241 62.5673 26.3258 62.0193 26.3362H62.0291ZM62.0291 32.893C61.5254 32.9296 61.0221 32.816 60.5848 32.5671C60.1476 32.3182 59.7965 31.9453 59.5774 31.4972C59.3584 31.0491 59.2814 30.5464 59.3565 30.0546C59.4316 29.5627 59.6553 29.1046 59.9986 28.7397C60.3418 28.3748 60.7887 28.1202 61.281 28.0089C61.7733 27.8976 62.2882 27.9348 62.7587 28.1157C63.2292 28.2966 63.6335 28.6128 63.919 29.0231C64.2044 29.4334 64.3578 29.9188 64.3592 30.4162C64.3749 30.7311 64.3264 31.0459 64.2166 31.342C64.1068 31.6382 63.9378 31.9097 63.7198 32.1405C63.5017 32.3713 63.2389 32.5568 62.9468 32.6861C62.6548 32.8153 62.3394 32.8857 62.0193 32.893H62.0291ZM51.217 27.5938V29.3218H55.4287C55.3627 30.1357 55.0191 30.9036 54.4538 31.501C54.0324 31.9236 53.5258 32.2547 52.9667 32.4729C52.4076 32.6912 51.8082 32.7917 51.2072 32.7682C49.9661 32.7682 48.7758 32.2827 47.8981 31.4185C47.0205 30.5543 46.5275 29.3823 46.5275 28.1602C46.5275 26.938 47.0205 25.766 47.8981 24.9018C48.7758 24.0376 49.9661 23.5522 51.2072 23.5522C52.3945 23.5331 53.541 23.9785 54.3953 24.7906L55.6335 23.5714C55.0568 22.9963 54.3687 22.5412 53.6101 22.2328C52.8514 21.9244 52.0377 21.7692 51.217 21.7762C50.3502 21.7429 49.4856 21.8824 48.6749 22.1861C47.8642 22.4897 47.1241 22.9515 46.499 23.5435C45.8738 24.1356 45.3765 24.8459 45.0368 25.6317C44.6971 26.4176 44.522 27.2629 44.522 28.117C44.522 28.9711 44.6971 29.8164 45.0368 30.6022C45.3765 31.3881 45.8738 32.0983 46.499 32.6904C47.1241 33.2825 47.8642 33.7442 48.6749 34.0479C49.4856 34.3516 50.3502 34.491 51.217 34.4578C52.0515 34.4949 52.8844 34.3556 53.6596 34.0493C54.4349 33.7429 55.1345 33.2766 55.7114 32.6818C56.7329 31.5767 57.2782 30.1241 57.2324 28.6306C57.2355 28.2667 57.2029 27.9034 57.1349 27.5458L51.217 27.5938ZM95.3916 28.9378C95.1374 28.2012 94.6619 27.558 94.0282 27.0935C93.3945 26.6289 92.6324 26.3648 91.8428 26.3362C91.3096 26.3351 90.7817 26.4418 90.2919 26.6496C89.8022 26.8574 89.3609 27.162 88.9954 27.5444C88.6299 27.9268 88.3479 28.3789 88.1669 28.8729C87.9859 29.3668 87.9097 29.8921 87.9431 30.4162C87.9312 30.9527 88.0293 31.4861 88.2315 31.9845C88.4337 32.4829 88.7358 32.936 89.1199 33.3169C89.5039 33.6977 89.962 33.9984 90.4667 34.201C90.9714 34.4037 91.5124 34.504 92.0573 34.4962C92.7393 34.4998 93.4115 34.3368 94.0139 34.0218C94.6162 33.7069 95.1298 33.2497 95.5086 32.6914L94.095 31.7314C93.884 32.0777 93.5853 32.3642 93.2281 32.5628C92.8709 32.7613 92.4675 32.8652 92.0573 32.8642C91.635 32.88 91.2176 32.7704 90.8595 32.5495C90.5013 32.3287 90.2189 32.0068 90.0489 31.6258L95.5964 29.3698L95.3916 28.9378ZM89.737 30.301C89.7172 30.004 89.7578 29.7062 89.8564 29.4249C89.955 29.1436 90.1096 28.8845 90.3112 28.6628C90.5127 28.4411 90.7572 28.2612 91.0303 28.1337C91.3033 28.0062 91.5994 27.9336 91.9013 27.9202C92.2158 27.8998 92.5295 27.9708 92.8033 28.1244C93.0772 28.278 93.2992 28.5074 93.4418 28.7842L89.737 30.301ZM85.2327 34.2562H87.0559V22.2562H85.2327V34.2562ZM82.2494 27.2482H82.1812C81.9064 26.9457 81.5698 26.7038 81.1934 26.5383C80.8171 26.3729 80.4094 26.2876 79.9973 26.2882C78.9319 26.339 77.9271 26.7916 77.1914 27.5521C76.4556 28.3126 76.0452 29.3226 76.0452 30.373C76.0452 31.4233 76.4556 32.4334 77.1914 33.1938C77.9271 33.9543 78.9319 34.4069 79.9973 34.4578C80.4104 34.4646 80.8201 34.3822 81.1974 34.2163C81.5747 34.0505 81.9105 33.8052 82.1812 33.4978H82.2397V34.0834C82.2397 35.6482 81.3915 36.4834 80.0265 36.4834C79.5719 36.4729 79.1308 36.3294 78.7592 36.0713C78.3877 35.8132 78.1026 35.452 77.9402 35.0338L76.351 35.6866C76.6501 36.4031 77.1598 37.0152 77.8147 37.4446C78.4696 37.8739 79.2398 38.1008 80.0265 38.0962C82.1617 38.0962 83.9263 36.8578 83.9263 33.8434V26.5762H82.2494V27.2482ZM80.163 32.893C79.5341 32.8384 78.9488 32.5538 78.5225 32.0954C78.0961 31.6369 77.8596 31.0378 77.8596 30.4162C77.8596 29.7945 78.0961 29.1954 78.5225 28.737C78.9488 28.2785 79.5341 27.9939 80.163 27.9394C80.4748 27.9551 80.7803 28.0322 81.0614 28.166C81.3425 28.2998 81.5936 28.4876 81.7998 28.7184C82.006 28.9492 82.1633 29.2183 82.2623 29.5099C82.3613 29.8015 82.4 30.1096 82.3761 30.4162C82.4027 30.724 82.3657 31.034 82.2671 31.3274C82.1686 31.6207 82.0106 31.8913 81.8028 32.1228C81.5951 32.3544 81.3417 32.542 81.0582 32.6744C80.7747 32.8067 80.4668 32.8811 80.1533 32.893H80.163ZM103.932 22.2562H99.5741V34.2562H101.397V29.7058H103.942C104.461 29.7425 104.983 29.6735 105.475 29.5029C105.966 29.3324 106.416 29.064 106.798 28.7146C107.179 28.3651 107.483 27.942 107.691 27.4717C107.899 27.0014 108.006 26.4939 108.006 25.981C108.006 25.468 107.899 24.9606 107.691 24.4902C107.483 24.0199 107.179 23.5968 106.798 23.2474C106.416 22.8979 105.966 22.6295 105.475 22.459C104.983 22.2884 104.461 22.2194 103.942 22.2562H103.932ZM103.932 28.0162H101.388V23.9266H103.971C104.526 23.9266 105.058 24.1435 105.45 24.5297C105.842 24.9159 106.062 25.4396 106.062 25.9858C106.062 26.5319 105.842 27.0557 105.45 27.4418C105.058 27.828 104.526 28.045 103.971 28.045L103.932 28.0162ZM115.173 26.2882C114.51 26.2491 113.849 26.4018 113.272 26.7276C112.695 27.0533 112.228 27.5379 111.927 28.1218L113.545 28.7842C113.705 28.4946 113.946 28.2569 114.241 28.1001C114.535 27.9433 114.869 27.8741 115.202 27.901C115.434 27.8743 115.668 27.8934 115.892 27.957C116.116 28.0205 116.325 28.1274 116.506 28.2712C116.688 28.4151 116.839 28.5931 116.949 28.7949C117.06 28.9967 117.129 29.2182 117.152 29.4466V29.5714C116.567 29.2661 115.914 29.1078 115.251 29.1106C113.506 29.1106 111.741 30.0706 111.741 31.8082C111.759 32.1787 111.851 32.542 112.013 32.8767C112.176 33.2114 112.405 33.5106 112.686 33.7568C112.968 34.0029 113.297 34.1909 113.654 34.3096C114.011 34.4284 114.388 34.4755 114.764 34.4482C115.223 34.4806 115.682 34.3908 116.094 34.1881C116.506 33.9854 116.855 33.6773 117.104 33.2962H117.162V34.2562H118.917V29.6386C118.917 27.5362 117.299 26.317 115.222 26.317L115.173 26.2882ZM114.949 32.8642C114.354 32.8642 113.526 32.5666 113.526 31.8466C113.526 30.8866 114.559 30.5698 115.475 30.5698C116.055 30.5557 116.627 30.6949 117.133 30.973C117.072 31.4927 116.822 31.9732 116.43 32.3261C116.038 32.6789 115.529 32.8802 114.998 32.893L114.949 32.8642ZM125.313 26.5762L123.226 31.7794H123.168L121.003 26.5762H119.054L122.3 33.853L120.448 37.8946H122.349L127.341 26.5762H125.313ZM108.924 34.2562H110.747V22.2562H108.924V34.2562Z" fill="white"/>
<path d="M50.8443 15.3465C50.8609 15.6986 50.8046 16.0504 50.6789 16.3805C50.5533 16.7105 50.3607 17.012 50.1131 17.2665C49.8366 17.5493 49.5027 17.7716 49.1332 17.9188C48.7636 18.066 48.3667 18.1349 47.9683 18.1209C47.3638 18.1163 46.7741 17.9361 46.2732 17.6029C45.7723 17.2697 45.3824 16.7983 45.1523 16.2479C44.9223 15.6974 44.8623 15.0924 44.9799 14.5085C45.0976 13.9247 45.3876 13.388 45.8136 12.9657C46.0936 12.6842 46.4293 12.4623 46.8 12.3137C47.1706 12.1651 47.5682 12.093 47.9683 12.1017C48.3804 12.1004 48.7885 12.1821 49.1674 12.3417C49.5202 12.4818 49.8343 12.7023 50.0839 12.9849L49.5672 13.4937C49.3726 13.2658 49.1268 13.0856 48.8493 12.9673C48.5718 12.849 48.2702 12.7959 47.9683 12.8121C47.6637 12.8107 47.362 12.8698 47.0813 12.9859C46.8005 13.102 46.5464 13.2728 46.3343 13.4879C46.1222 13.7031 45.9563 13.9582 45.8468 14.238C45.7372 14.5177 45.6861 14.8164 45.6966 15.1161C45.6903 15.5636 45.8186 16.0029 46.0655 16.3787C46.3124 16.7544 46.6668 17.0498 47.0839 17.2274C47.5011 17.4051 47.9623 17.4571 48.4095 17.3769C48.8566 17.2967 49.2696 17.088 49.5964 16.7769C49.8964 16.4568 50.0694 16.0411 50.0839 15.6057H47.9683V14.9145H50.8053C50.8313 15.0571 50.8444 15.2017 50.8443 15.3465ZM55.3096 12.9465H52.6772V14.7705H55.0756V15.4617H52.6772V17.2857H55.3096V17.9961H51.8973V12.2361H55.3096V12.9465ZM58.5074 17.9961H57.7567V12.9465H56.1188V12.2361H60.1843V12.9465H58.5074V17.9961ZM63.0506 17.9961V12.2361H63.8013V17.9961H63.0506ZM67.1356 17.9961H66.3849V12.9465H64.747V12.2361H68.7638V12.9465H67.1356V17.9961ZM76.3781 17.2473C75.8081 17.8054 75.037 18.1187 74.2332 18.1187C73.4294 18.1187 72.6583 17.8054 72.0883 17.2473C71.5343 16.6699 71.2257 15.9057 71.2257 15.1113C71.2257 14.317 71.5343 13.5527 72.0883 12.9753C72.3693 12.6967 72.7034 12.4755 73.0715 12.3246C73.4396 12.1737 73.8345 12.096 74.2332 12.096C74.632 12.096 75.0268 12.1737 75.3949 12.3246C75.763 12.4755 76.0971 12.6967 76.3781 12.9753C76.9343 13.5516 77.2444 14.3163 77.2444 15.1113C77.2444 15.9064 76.9343 16.671 76.3781 17.2473ZM72.644 16.7673C73.0661 17.1812 73.6375 17.4136 74.2332 17.4136C74.8289 17.4136 75.4003 17.1812 75.8224 16.7673C76.2389 16.3152 76.4696 15.7266 76.4696 15.1161C76.4696 14.5057 76.2389 13.9171 75.8224 13.4649C75.4003 13.0511 74.8289 12.8187 74.2332 12.8187C73.6375 12.8187 73.0661 13.0511 72.644 13.4649C72.2275 13.9171 71.9968 14.5057 71.9968 15.1161C71.9968 15.7266 72.2275 16.3152 72.644 16.7673ZM78.2987 17.9961V12.2361H79.2152L82.062 16.7193V12.2361H82.8127V17.9961H82.0327L79.0592 13.3017V17.9961H78.2987Z" fill="white"/>
<path fill-rule="evenodd" clip-rule="evenodd" d="M74.2332 12.192C73.8473 12.192 73.4652 12.2672 73.109 12.4132C72.7531 12.5591 72.4301 12.7729 72.1584 13.0421C71.622 13.6016 71.3232 14.3419 71.3232 15.1113C71.3232 15.8807 71.6219 16.6209 72.1582 17.1803C72.7097 17.7199 73.4557 18.0227 74.2332 18.0227C75.0108 18.0227 75.7568 17.7198 76.3084 17.1802C76.8467 16.6218 77.1469 15.8813 77.1469 15.1113C77.1469 14.3413 76.8466 13.6006 76.3082 13.0422C76.0364 12.7729 75.7133 12.5592 75.3574 12.4132C75.0012 12.2672 74.6191 12.192 74.2332 12.192ZM73.0341 12.236C73.414 12.0802 73.8216 12 74.2332 12C74.6448 12 75.0524 12.0802 75.4323 12.236C75.8123 12.3918 76.1573 12.6201 76.4473 12.9077L76.4488 12.9092C77.0222 13.5033 77.3419 14.2917 77.3419 15.1113C77.3419 15.931 77.0222 16.7193 76.4487 17.3135L76.4469 17.3154C75.8586 17.8914 75.0628 18.2147 74.2332 18.2147C73.4036 18.2147 72.6078 17.8914 72.0196 17.3154L72.0174 17.3133C71.4463 16.718 71.1282 15.9302 71.1282 15.1113C71.1282 14.2925 71.4464 13.5046 72.0175 12.9094L72.0191 12.9077C72.3091 12.62 72.6541 12.3918 73.0341 12.236ZM47.9661 12.1977C47.5794 12.1892 47.195 12.259 46.8367 12.4026C46.4785 12.5463 46.154 12.7608 45.8833 13.0329L45.8828 13.0334C45.4703 13.4423 45.1895 13.9619 45.0756 14.5272C44.9617 15.0925 45.0197 15.6784 45.2425 16.2113C45.4652 16.7443 45.8428 17.2007 46.3278 17.5233C46.8128 17.8459 47.3837 18.0204 47.969 18.0249L47.9717 18.0249C48.3565 18.0384 48.7397 17.972 49.0966 17.8298C49.4534 17.6877 49.7758 17.4731 50.0428 17.2C50.2812 16.9549 50.4666 16.6646 50.5877 16.3467C50.7087 16.0289 50.7629 15.6901 50.7469 15.351L50.8443 15.3465L50.7468 15.3465C50.7469 15.234 50.7387 15.1218 50.7224 15.0105H48.0658V15.5097H50.1846L50.1813 15.6089C50.1661 16.0673 49.9839 16.505 49.6681 16.842L49.6643 16.8461C49.3237 17.1703 48.893 17.3878 48.4269 17.4714C47.9608 17.5549 47.4801 17.5007 47.0452 17.3155C46.6104 17.1303 46.241 16.8225 45.9836 16.4308C45.7267 16.0398 45.5929 15.5828 45.5991 15.1171C45.5885 14.8053 45.6418 14.4945 45.7558 14.2034C45.8701 13.9116 46.0431 13.6455 46.2643 13.421C46.4856 13.1966 46.7506 13.0185 47.0435 12.8974C47.3355 12.7766 47.6492 12.715 47.9658 12.7161C48.2819 12.6996 48.5976 12.7554 48.8881 12.8792C49.1469 12.9896 49.3795 13.1512 49.5714 13.3538L49.9494 12.9816C49.7205 12.7421 49.4414 12.554 49.131 12.4308L49.1291 12.43C48.7624 12.2755 48.3675 12.1964 47.9686 12.1977L47.9661 12.1977ZM50.9418 15.3443C50.9587 15.7087 50.9003 16.0726 50.7702 16.4142C50.6399 16.7564 50.4403 17.069 50.1835 17.3329C49.8976 17.6255 49.552 17.8555 49.1697 18.0078C48.7879 18.1599 48.3778 18.2312 47.9661 18.2169C47.3429 18.2118 46.7351 18.0259 46.2186 17.6824C45.7018 17.3386 45.2995 16.8523 45.0622 16.2844C44.8248 15.7165 44.7629 15.0922 44.8843 14.4899C45.0057 13.8876 45.3048 13.3339 45.7442 12.8983C46.0335 12.6076 46.3803 12.3783 46.7632 12.2248C47.1458 12.0714 47.5562 11.9968 47.9692 12.0057C48.3939 12.0045 48.8144 12.0887 49.2049 12.2531C49.5715 12.3989 49.898 12.6281 50.1575 12.9219L50.2171 12.9895L49.5609 13.6356L49.4925 13.5555C49.3077 13.339 49.0742 13.1678 48.8106 13.0554C48.547 12.943 48.2604 12.8926 47.9736 12.908L47.9678 12.9083C47.6764 12.9069 47.3877 12.9633 47.119 13.0744C46.8503 13.1855 46.6072 13.3489 46.4042 13.5548C46.2013 13.7607 46.0426 14.0048 45.9377 14.2725C45.8329 14.5402 45.784 14.826 45.7941 15.1128L45.7942 15.1175C45.7881 15.546 45.9109 15.9667 46.1474 16.3265C46.3838 16.6864 46.7231 16.9692 47.1226 17.1393C47.5221 17.3094 47.9638 17.3592 48.392 17.2825C48.8193 17.2059 49.214 17.0066 49.5266 16.7098C49.7868 16.4313 49.9457 16.0768 49.9802 15.7017H47.8708V14.8185H50.8869L50.9013 14.8976C50.9282 15.045 50.9418 15.1945 50.9418 15.3443ZM51.7998 12.1401H55.4071V13.0425H52.7747V14.6745H55.1731V15.5577H52.7747V17.1897H55.4071V18.0921H51.7998V12.1401ZM51.9948 12.3321V17.9001H55.2121V17.3817H52.5797V15.3657H54.9781V14.8665H52.5797V12.8505H55.2121V12.3321H51.9948ZM56.0213 12.1401H60.2818V13.0425H58.6049V18.0921H57.6592V13.0425H56.0213V12.1401ZM56.2163 12.3321V12.8505H57.8542V17.9001H58.4099V12.8505H60.0868V12.3321H56.2163ZM62.9531 12.1401H63.8988V18.0921H62.9531V12.1401ZM63.1481 12.3321V17.9001H63.7038V12.3321H63.1481ZM64.6495 12.1401H68.8613V13.0425H67.2331V18.0921H66.2874V13.0425H64.6495V12.1401ZM64.8445 12.3321V12.8505H66.4824V17.9001H67.0381V12.8505H68.6663V12.3321H64.8445ZM78.2012 12.1401H79.2692L81.9645 16.3847V12.1401H82.9102V18.0921H81.9787L79.1567 13.637V18.0921H78.2012V12.1401ZM78.3962 12.3321V17.9001H78.9617V12.9664L82.0868 17.9001H82.7152V12.3321H82.1595V17.0539L79.1611 12.3321H78.3962ZM72.5753 13.3969C73.0156 12.9651 73.6117 12.7227 74.2332 12.7227C74.8547 12.7227 75.4508 12.9651 75.8912 13.3969L75.8947 13.4003C76.3275 13.8701 76.5671 14.4818 76.5671 15.1161C76.5671 15.7504 76.3274 16.362 75.8946 16.8318L75.8912 16.8354C75.4509 17.2672 74.8547 17.5096 74.2332 17.5096C73.6117 17.5096 73.0156 17.2671 72.5753 16.8354L72.644 16.7673L72.5718 16.8318C72.139 16.362 71.8993 15.7504 71.8993 15.1161C71.8993 14.4818 72.139 13.8702 72.5718 13.4004L72.5753 13.3969ZM72.7146 16.701C73.1182 17.0959 73.6642 17.3176 74.2332 17.3176C74.8023 17.3176 75.3482 17.0959 75.7518 16.701C76.151 16.2668 76.3721 15.7019 76.3721 15.1161C76.3721 14.5303 76.151 13.9655 75.7518 13.5312C75.3482 13.1363 74.8023 12.9147 74.2332 12.9147C73.6642 12.9147 73.1182 13.1363 72.7146 13.5312C72.3154 13.9655 72.0943 14.5303 72.0943 15.1161C72.0943 15.7019 72.3154 16.2668 72.7146 16.701Z" fill="white"/>
<defs>
<linearGradient id="paint0_linear" x1="22.9481" y1="14.4698" x2="7.30099" y2="30.4609" gradientUnits="userSpaceOnUse">
<stop stop-color="#00A0FF"/>
<stop offset="0.01" stop-color="#00A1FF"/>
<stop offset="0.26" stop-color="#00BEFF"/>
<stop offset="0.51" stop-color="#00D2FF"/>
<stop offset="0.76" stop-color="#00DFFF"/>
<stop offset="1" stop-color="#00E3FF"/>
</linearGradient>
<linearGradient id="paint1_linear" x1="34.4157" y1="25" x2="11.3575" y2="25" gradientUnits="userSpaceOnUse">
<stop stop-color="#FFE000"/>
<stop offset="0.41" stop-color="#FFBD00"/>
<stop offset="0.78" stop-color="#FFA500"/>
<stop offset="1" stop-color="#FF9C00"/>
</linearGradient>
<linearGradient id="paint2_linear" x1="25.8368" y1="27.1452" x2="4.61323" y2="48.8259" gradientUnits="userSpaceOnUse">
<stop stop-color="#FF3A44"/>
<stop offset="1" stop-color="#C31162"/>
</linearGradient>
<linearGradient id="paint3_linear" x1="9.1268" y1="6.51374" x2="18.6009" y2="16.1961" gradientUnits="userSpaceOnUse">
<stop stop-color="#32A071"/>
<stop offset="0.07" stop-color="#2DA771"/>
<stop offset="0.48" stop-color="#15CF74"/>
<stop offset="0.8" stop-color="#06E775"/>
<stop offset="1" stop-color="#00F076"/>
</linearGradient>
</defs>
</svg>
